<svg xmlns="http://www.w3.org/2000/svg" width="31" height="30" viewBox="0 0 31 30" fill="none">
    <path d="M27.4118 9.43271L12.4118 24.4327C12.2812 24.5638 12.1259 24.6678 11.955 24.7388C11.7841 24.8098 11.6008 24.8463 11.4157 24.8463C11.2306 24.8463 11.0474 24.8098 10.8764 24.7388C10.7055 24.6678 10.5503 24.5638 10.4196 24.4327L3.85711 17.8702C3.72631 17.7394 3.62254 17.5841 3.55175 17.4132C3.48096 17.2423 3.44452 17.0591 3.44452 16.8741C3.44452 16.6891 3.48096 16.5059 3.55175 16.335C3.62254 16.1641 3.72631 16.0088 3.85711 15.878C3.98792 15.7472 4.14322 15.6435 4.31413 15.5727C4.48504 15.5019 4.66822 15.4654 4.85321 15.4654C5.0382 15.4654 5.22138 15.5019 5.39229 15.5727C5.5632 15.6435 5.71849 15.7472 5.8493 15.878L11.4169 21.4456L25.422 7.44287C25.6861 7.17869 26.0444 7.03027 26.4181 7.03027C26.7917 7.03027 27.15 7.17869 27.4141 7.44287C27.6783 7.70705 27.8267 8.06536 27.8267 8.43896C27.8267 8.81257 27.6783 9.17088 27.4141 9.43506L27.4118 9.43271Z" fill="white"/>
</svg>
