<svg xmlns="http://www.w3.org/2000/svg" width="18" height="18" viewBox="0 0 18 18" fill="none">
    <g clip-path="url(#clip0_311_2712)">
        <path d="M5.30343 9.64171H12.6963C12.7847 9.64171 12.857 9.56939 12.857 9.48099V8.51671C12.857 8.42831 12.7847 8.35599 12.6963 8.35599H5.30343C5.21503 8.35599 5.14271 8.42831 5.14271 8.51671V9.48099C5.14271 9.56939 5.21503 9.64171 5.30343 9.64171Z" fill="white"/>
        <path d="M16.3932 0.964355H1.60746C1.25188 0.964355 0.9646 1.25163 0.9646 1.60721V16.3929C0.9646 16.7485 1.25188 17.0358 1.60746 17.0358H16.3932C16.7488 17.0358 17.036 16.7485 17.036 16.3929V1.60721C17.036 1.25163 16.7488 0.964355 16.3932 0.964355ZM15.5896 15.5894H2.41103V2.41078H15.5896V15.5894Z" fill="white"/>
    </g>
    <defs>
        <clipPath id="clip0_311_2712">
            <rect width="18" height="18" fill="white"/>
        </clipPath>
    </defs>
</svg>
