<svg xmlns="http://www.w3.org/2000/svg" width="18" height="18" viewBox="0 0 18 18" fill="none">
    <g clip-path="url(#clip0_311_2710)">
        <path d="M5.30343 9.64354H8.357V12.6971C8.357 12.7855 8.42932 12.8578 8.51771 12.8578H9.482C9.57039 12.8578 9.64271 12.7855 9.64271 12.6971V9.64354H12.6963C12.7847 9.64354 12.857 9.57122 12.857 9.48282V8.51854C12.857 8.43014 12.7847 8.35782 12.6963 8.35782H9.64271V5.30425C9.64271 5.21586 9.57039 5.14354 9.482 5.14354H8.51771C8.42932 5.14354 8.357 5.21586 8.357 5.30425V8.35782H5.30343C5.21503 8.35782 5.14271 8.43014 5.14271 8.51854V9.48282C5.14271 9.57122 5.21503 9.64354 5.30343 9.64354Z" fill="white"/>
        <path d="M16.3932 0.964355H1.60746C1.25188 0.964355 0.9646 1.25163 0.9646 1.60721V16.3929C0.9646 16.7485 1.25188 17.0358 1.60746 17.0358H16.3932C16.7488 17.0358 17.036 16.7485 17.036 16.3929V1.60721C17.036 1.25163 16.7488 0.964355 16.3932 0.964355ZM15.5896 15.5894H2.41103V2.41078H15.5896V15.5894Z" fill="white"/>
    </g>
    <defs>
        <clipPath id="clip0_311_2710">
            <rect width="18" height="18" fill="white"/>
        </clipPath>
    </defs>
</svg>
