<svg width="112" height="112" viewBox="0 0 112 112" fill="none" xmlns="http://www.w3.org/2000/svg">
<g id="Union" filter="url(#filter0_d_722_12375)">
<path fill-rule="evenodd" clip-rule="evenodd" d="M98 52C98 75.196 79.196 94 56 94C32.804 94 14 75.196 14 52C14 28.804 32.804 10 56 10C79.196 10 98 28.804 98 52ZM108 52C108 80.7188 84.7188 104 56 104C27.2812 104 4 80.7188 4 52C4 23.2812 27.2812 0 56 0C84.7188 0 108 23.2812 108 52ZM48 74.5167L81 55.4641C83.6667 53.9245 83.6667 50.0755 81 48.5359L48 29.4833C45.3333 27.9437 42 29.8682 42 32.9474L42 71.0526C42 74.1318 45.3333 76.0563 48 74.5167Z" fill="white"/>
</g>
<defs>
<filter id="filter0_d_722_12375" x="0" y="0" width="112" height="112" filterUnits="userSpaceOnUse" color-interpolation-filters="sRGB">
<feFlood flood-opacity="0" result="BackgroundImageFix"/>
<feColorMatrix in="SourceAlpha" type="matrix" values="0 0 0 0 0 0 0 0 0 0 0 0 0 0 0 0 0 0 127 0" result="hardAlpha"/>
<feOffset dy="4"/>
<feGaussianBlur stdDeviation="2"/>
<feComposite in2="hardAlpha" operator="out"/>
<feColorMatrix type="matrix" values="0 0 0 0 0 0 0 0 0 0 0 0 0 0 0 0 0 0 0.25 0"/>
<feBlend mode="normal" in2="BackgroundImageFix" result="effect1_dropShadow_722_12375"/>
<feBlend mode="normal" in="SourceGraphic" in2="effect1_dropShadow_722_12375" result="shape"/>
</filter>
</defs>
</svg>
