<svg xmlns="http://www.w3.org/2000/svg" width="31" height="30" viewBox="0 0 31 30" fill="none">
  <path d="M27.4119 9.43271L12.4119 24.4327C12.2812 24.5638 12.126 24.6678 11.955 24.7388C11.7841 24.8098 11.6009 24.8463 11.4158 24.8463C11.2307 24.8463 11.0474 24.8098 10.8765 24.7388C10.7056 24.6678 10.5503 24.5638 10.4197 24.4327L3.85718 17.8702C3.72637 17.7394 3.6226 17.5841 3.55181 17.4132C3.48102 17.2423 3.44458 17.0591 3.44458 16.8741C3.44458 16.6891 3.48102 16.5059 3.55181 16.335C3.6226 16.1641 3.72637 16.0088 3.85718 15.878C3.98798 15.7472 4.14328 15.6435 4.31419 15.5727C4.4851 15.5019 4.66828 15.4654 4.85327 15.4654C5.03826 15.4654 5.22144 15.5019 5.39235 15.5727C5.56326 15.6435 5.71855 15.7472 5.84936 15.878L11.4169 21.4456L25.422 7.44287C25.6862 7.17869 26.0445 7.03027 26.4181 7.03027C26.7917 7.03027 27.15 7.17869 27.4142 7.44287C27.6784 7.70705 27.8268 8.06536 27.8268 8.43896C27.8268 8.81257 27.6784 9.17088 27.4142 9.43506L27.4119 9.43271Z" fill="white"/>
</svg>
