<svg width="480" height="485" viewBox="0 0 480 485" fill="none" xmlns="http://www.w3.org/2000/svg">
<path d="M436.52 447.947C418.556 445.385 389.246 442.724 369.662 441.838C330.087 440.163 301.993 439.374 261.879 440.36C230.948 441.148 198.938 442.232 167.467 444.301C137.077 444.498 106.552 446.272 77.2426 449.72C57.658 451.987 37.2629 454.844 19.9744 458.786C4.03656 462.431 -5.55316 468.344 3.4963 474.157C12.5458 479.971 33.0759 482.139 52.1202 482.139C74.6764 482.04 97.0974 479.774 119.654 479.478C164.631 478.788 208.257 482.237 252.424 483.715C295.24 485.193 338.056 484.405 380.197 479.675C400.592 477.409 484.738 486.277 479.471 461.643C478.255 455.633 451.107 450.016 436.52 447.947Z" fill="#5C38FF" fill-opacity="0.2"/>
<path d="M436.347 415.924L314.295 310.259C311.329 307.696 306.855 308.048 304.291 310.963L301.275 314.482L270.209 287.588L263.221 295.681C280.313 273.061 292.227 243.603 291.975 214.749C291.975 214.296 291.975 213.794 291.975 213.341C290.568 142.663 229.491 87.9207 158.612 88.5741C87.2809 89.2276 29.7734 147.791 30.4269 219.122C30.4269 219.575 30.4269 220.077 30.4269 220.53C31.7842 291.208 90.0456 347.961 160.925 347.307C195.308 347.006 227.48 333.383 251.66 308.952L251.056 309.656L282.123 336.55L279.106 340.069C276.543 343.035 276.895 347.509 279.81 350.072L401.863 455.737C412.872 465.238 429.51 464.082 439.011 453.073C448.512 442.064 447.356 425.425 436.347 415.924ZM160.673 317.448C106.182 317.95 61.3422 274.317 60.2363 219.926C60.2363 219.575 60.2363 219.223 60.2363 218.871C59.7336 163.977 103.97 118.936 158.813 118.434C213.305 117.931 258.144 161.564 259.25 215.955C259.25 216.307 259.25 216.659 259.25 217.011C259.502 243.603 249.398 268.687 230.748 287.638C212.148 306.64 187.215 317.196 160.673 317.448Z" fill="#908EFF"/>
<path d="M445.446 437.237L446.451 414.968L423.629 410.143V430.753L437.051 445.632L445.446 437.237Z" fill="#908EFF"/>
<path d="M437.353 394.51L315.3 288.845C312.334 286.281 307.86 286.633 305.297 289.549L302.281 293.068L269.405 264.616L264.177 274.217C281.268 251.596 290.367 224.099 290.116 195.295C290.116 194.843 290.116 194.34 290.116 193.887C288.708 123.26 230.396 66.5064 159.517 67.1599C88.1859 67.8134 30.6784 126.376 31.3319 197.708C31.3319 198.16 31.3319 198.663 31.3319 199.115C32.7897 269.844 91.0512 326.547 161.93 325.893C196.314 325.592 228.486 311.969 252.665 287.538L252.062 288.242L283.128 315.136L280.112 318.654C277.548 321.62 277.9 326.094 280.816 328.658L402.868 434.323C413.877 443.824 430.516 442.668 440.017 431.659C449.518 420.65 448.362 404.011 437.353 394.51ZM161.679 296.034C107.187 296.536 62.3478 252.903 61.2418 198.512C61.2418 198.16 61.2418 197.808 61.2418 197.457C60.7392 142.563 104.976 97.5222 159.819 97.0195C214.31 96.5169 259.15 140.15 260.256 194.541C260.256 194.893 260.256 195.245 260.256 195.597C260.507 222.189 250.403 247.273 231.753 266.224C213.154 285.226 188.221 295.782 161.679 296.034Z" fill="#C5C4FF"/>
<path d="M443.485 262.152H325.102C325.102 247.072 337.317 234.907 352.348 234.907C353.906 234.907 355.414 235.007 356.872 235.259C362.954 223.043 375.622 214.648 390.2 214.648C398.947 214.648 407.04 217.665 413.374 222.742C419.456 227.567 423.981 234.303 426.092 241.995C435.945 243.452 443.485 251.948 443.485 262.152Z" fill="#96ADFC"/>
<path d="M85.5218 170.512C84.8181 167.747 85.5721 164.731 87.231 162.469C90.6995 157.794 97.5863 157.09 102.211 160.458C105.026 162.519 106.233 166.038 108.595 168.501C110.304 170.26 113.069 170.662 115.281 171.417C120.609 173.276 126.441 176.192 129.004 181.571C131.116 186.045 131.216 193.736 125.485 195.546C122.369 196.501 119.051 194.389 117.292 191.876C115.432 189.262 115.784 185.592 113.471 183.179C112.466 182.124 111.058 181.42 109.651 181.018C104.775 179.56 99.0944 181.269 95.7767 185.14C93.5146 187.804 91.9562 191.625 88.5882 192.529C84.9186 193.485 81.2993 190.167 81.6009 186.497C81.9025 183.33 84.3657 180.616 85.8737 177.951C86.2256 177.298 86.5775 176.644 86.8288 175.991C87.5326 174.232 86.3261 172.874 85.7732 171.316C85.7229 171.115 85.6224 170.813 85.5218 170.512Z" fill="#F05A22"/>
<path d="M201.039 461.568H184.148C178.971 461.568 173.893 459.305 169.57 456.641C166.102 454.48 160.874 450.157 156.601 452.771C154.037 454.329 152.328 457.244 150.77 459.758C150.066 460.914 148.809 461.618 147.502 461.618H146.648C143.531 461.618 141.068 459.004 141.219 455.887L142.626 431.909L176.759 427.385C189.778 435.428 197.118 447.945 201.039 461.568Z" fill="#F05A22"/>
<path d="M32.5383 461.568H49.4286C54.6063 461.568 59.6835 459.305 64.0066 456.641C67.4751 454.48 72.7031 450.157 76.9759 452.771C79.5396 454.329 81.2487 457.244 82.8071 459.758C83.5108 460.914 84.7676 461.618 86.0746 461.618H86.9291C90.0458 461.618 92.5089 459.004 92.3581 455.887L90.9506 431.909L56.8181 427.385C43.7985 435.428 36.5096 447.945 32.5383 461.568Z" fill="#F05A22"/>
<path d="M56.6178 425.526L79.4901 303.724C81.2997 294.173 90.4989 287.89 100.05 289.699C109.601 291.509 115.885 300.708 114.075 310.259L91.2027 432.06C89.5941 440.455 54.8081 435.077 56.6178 425.526Z" fill="#090928"/>
<path d="M142.878 432.966L111.963 317.951C109.45 308.55 114.979 298.899 124.379 296.385C133.78 293.872 143.431 299.401 145.945 308.802L176.86 423.817C179.373 433.167 144.99 440.808 142.878 432.966Z" fill="#090928"/>
<path d="M148.458 310.208C121.213 318.151 93.8663 318.1 66.5201 310.208C64.9618 309.756 66.118 290.151 66.2688 287.738C66.7212 280.6 67.9779 273.512 69.8881 266.575C74.8647 248.378 84.8682 230.633 106.232 230.633C123.575 230.633 134.182 242.949 139.812 258.18C142.627 265.771 144.789 273.864 146.347 281.857C146.9 284.772 150.771 309.555 148.458 310.208Z" fill="#1D50CD"/>
<path d="M92.056 225.053H120.508L123.424 241.491H89.1404L92.056 225.053Z" fill="#1D50CD"/>
<path d="M150.117 325.792C154.088 325.39 159.668 324.736 164.393 323.379C166.756 322.675 168.867 321.871 170.526 320.664C171.33 320.061 172.034 319.408 172.587 318.603C173.089 317.799 173.391 316.844 173.391 315.839C173.391 315.386 173.341 314.984 173.24 314.532C172.939 313.225 172.185 312.119 171.179 311.314C170.174 310.56 168.967 310.108 167.66 310.108C167.208 310.108 166.756 310.158 166.303 310.259L158.562 312.119L158.863 313.325L160.12 313.476C160.12 313.275 160.17 313.074 160.17 312.873L158.914 312.772L159.215 313.979L170.677 311.214C171.984 310.912 173.089 310.158 173.894 309.153C174.648 308.147 175.1 306.941 175.1 305.634C175.1 305.182 175.05 304.729 174.949 304.277C174.648 302.97 173.894 301.864 172.888 301.059C171.883 300.305 170.677 299.853 169.37 299.853C168.917 299.853 168.465 299.903 168.012 300.004L156.501 302.769L156.802 303.975L157.858 303.271C157.808 303.171 157.758 303.07 157.657 302.97L156.601 303.673L156.903 304.88L161.126 303.875C162.483 303.573 163.538 302.718 164.343 301.713C165.097 300.657 165.549 299.401 165.549 298.094C165.549 297.641 165.499 297.189 165.398 296.787C165.197 296.033 164.896 295.329 164.443 294.776C163.79 293.921 162.885 293.419 161.98 293.117C161.075 292.815 160.12 292.715 159.215 292.715C158.411 292.715 157.657 292.765 156.953 292.866C153.635 293.268 148.759 293.67 143.481 294.374L143.833 296.887C149.011 296.183 153.837 295.832 157.255 295.379C157.908 295.279 158.562 295.228 159.215 295.228C160.17 295.228 161.075 295.379 161.678 295.681C161.98 295.832 162.231 296.033 162.433 296.284C162.634 296.535 162.835 296.887 162.935 297.34C162.985 297.591 163.036 297.792 163.036 298.043C163.036 298.747 162.784 299.551 162.282 300.155C161.829 300.758 161.176 301.21 160.522 301.361L154.54 302.769L155.596 304.277C155.646 304.327 155.696 304.427 155.747 304.528L156.249 305.282L168.616 302.316C168.867 302.266 169.118 302.216 169.37 302.216C170.124 302.216 170.827 302.467 171.38 302.919C171.933 303.372 172.386 303.975 172.537 304.729C172.587 304.98 172.637 305.232 172.637 305.483C172.637 306.237 172.386 306.941 171.933 307.494C171.481 308.047 170.878 308.499 170.124 308.65L157.808 311.616L157.707 312.521C157.707 312.672 157.657 312.822 157.657 313.023L157.406 314.833L166.957 312.571C167.208 312.521 167.459 312.471 167.711 312.471C168.465 312.471 169.169 312.722 169.721 313.174C170.274 313.627 170.727 314.23 170.878 314.984C170.928 315.235 170.978 315.487 170.978 315.688C170.978 316.19 170.827 316.643 170.526 317.095C170.274 317.497 169.872 317.9 169.37 318.302C168.465 319.005 167.158 319.659 165.65 320.212C163.337 321.016 160.573 321.67 157.758 322.122C154.993 322.575 152.228 322.876 149.916 323.128L150.117 325.792Z" fill="#090928"/>
<path d="M224.717 239.33C227.381 237.068 230.9 234.002 233.815 230.785C235.273 229.176 236.58 227.517 237.535 225.858C238.038 225.054 238.44 224.2 238.691 223.395C238.993 222.591 239.144 221.736 239.144 220.932C239.144 220.228 238.993 219.474 238.691 218.821C238.39 218.117 237.937 217.514 237.334 217.011C236.228 216.006 234.871 215.553 233.463 215.553C231.905 215.553 230.296 216.207 229.191 217.464L223.912 223.345L224.867 224.2L225.973 223.647C225.873 223.496 225.772 223.295 225.672 223.094L224.566 223.697L225.521 224.551L233.413 215.805C234.418 214.699 234.871 213.342 234.871 211.934C234.871 210.376 234.217 208.767 232.961 207.661C231.855 206.656 230.498 206.203 229.09 206.203C227.532 206.203 225.923 206.857 224.817 208.114L216.875 216.911L217.83 217.765L218.282 216.609C218.182 216.559 218.081 216.508 217.93 216.458L217.478 217.614L218.433 218.469L221.349 215.252C222.304 214.196 222.756 212.789 222.756 211.431C222.756 210.627 222.605 209.772 222.253 209.018C221.952 208.264 221.449 207.561 220.796 206.957C220.293 206.505 219.74 206.153 219.187 205.952C218.634 205.751 218.031 205.65 217.478 205.65C216.271 205.65 215.166 206.103 214.21 206.656C213.255 207.209 212.401 207.912 211.647 208.566C209.184 210.778 205.363 213.844 201.442 217.413L203.151 219.273C207.022 215.754 210.792 212.688 213.356 210.426C214.009 209.823 214.763 209.219 215.467 208.817C216.171 208.415 216.875 208.164 217.478 208.164C217.78 208.164 218.031 208.214 218.282 208.315C218.534 208.415 218.835 208.566 219.187 208.868C219.539 209.169 219.79 209.521 219.991 209.974C220.192 210.426 220.293 210.929 220.293 211.431C220.293 212.236 220.042 213.04 219.539 213.593L215.417 218.167L217.126 218.821C217.227 218.871 217.277 218.871 217.428 218.921L218.232 219.273L226.727 209.823C227.381 209.119 228.235 208.767 229.14 208.767C229.894 208.767 230.699 209.018 231.302 209.622C232.006 210.275 232.357 211.13 232.357 212.035C232.357 212.789 232.106 213.593 231.503 214.196L223.007 223.647L223.46 224.451C223.56 224.602 223.611 224.753 223.711 224.903L224.566 226.512L231.101 219.223C231.754 218.519 232.609 218.167 233.514 218.167C234.268 218.167 235.072 218.419 235.675 219.022C236.027 219.324 236.228 219.675 236.379 219.977C236.53 220.329 236.58 220.681 236.58 221.083C236.58 221.586 236.479 222.139 236.278 222.742C235.927 223.848 235.173 225.104 234.217 226.411C232.81 228.372 230.849 230.433 228.839 232.393C226.828 234.354 224.767 236.113 223.058 237.621L224.717 239.33Z" fill="#090928"/>
<path d="M105.73 260.493L110.053 247.524L103.116 259.287C117.241 267.632 133.026 271.754 148.709 271.754C158.361 271.754 167.962 270.195 177.162 267.129C186.361 264.062 195.158 259.438 203.151 253.355L206.519 250.791C212.551 246.217 213.707 237.621 209.082 231.589C204.508 225.557 195.912 224.4 189.88 229.025L186.512 231.589C180.932 235.811 174.849 239.029 168.415 241.19C162.031 243.301 155.345 244.407 148.609 244.407C137.701 244.407 126.742 241.542 116.889 235.761C116.035 235.258 115.18 234.856 114.275 234.555C107.087 232.142 99.3456 236.063 96.9829 243.201C94.7208 250.389 98.5915 258.131 105.73 260.493Z" fill="#1D50CD"/>
<path d="M78.2828 243.301C75.3672 245.513 72.3511 247.926 69.4355 250.641C65.0621 254.662 60.8395 259.287 57.2202 264.666C55.4105 267.33 53.8019 270.246 52.3944 273.312C50.9869 276.378 49.8809 279.696 49.0766 283.165C48.3729 286.382 48.021 289.599 48.021 292.816C48.021 298.396 49.0766 303.976 51.1879 309.204C53.2992 314.432 56.5164 319.408 60.8395 323.581C63.2524 325.893 65.8664 327.803 68.5809 329.362C72.703 331.724 77.0261 333.283 81.2989 334.288C85.622 335.243 89.8949 335.645 94.1175 335.645C100.552 335.645 106.785 334.74 112.616 333.383C118.448 332.026 123.877 330.166 128.702 328.155C135.69 325.24 138.957 317.197 136.042 310.259C133.126 303.272 125.083 300.005 118.146 302.92C114.677 304.378 110.555 305.735 106.383 306.741C102.211 307.696 97.9379 308.299 94.1175 308.299C92.4586 308.299 90.85 308.198 89.4425 307.997C87.2809 307.696 85.3707 307.143 83.8124 306.489C82.254 305.786 80.947 304.931 79.8411 303.875C78.4839 302.568 77.4282 300.96 76.6742 299.1C75.9202 297.24 75.518 295.078 75.518 292.917C75.518 291.66 75.6688 290.403 75.9202 289.197C76.3726 287.186 77.1266 285.125 78.2325 283.064C79.8411 279.998 82.2038 276.831 85.0691 273.815C87.9344 270.799 91.3527 267.883 94.8715 265.219C100.904 260.644 102.11 252.099 97.5357 246.066C92.911 239.933 84.315 238.727 78.2828 243.301Z" fill="#1D50CD"/>
<path d="M122.62 329.161C116.035 331.473 106.635 333.986 96.5811 334.338C95.7768 334.389 94.9726 334.389 94.2185 334.389V335.595L94.2688 334.389H94.2185V335.595L94.2688 334.389H94.2185C91.2024 334.389 88.2365 334.188 85.4718 333.735C84.768 333.635 84.1648 334.087 84.0642 334.791C83.9637 335.495 84.4161 336.098 85.1199 336.198C88.0355 336.651 91.1019 336.852 94.2688 336.852V335.645L94.2185 336.852H94.2688V335.645L94.2185 336.852H94.2688C95.0731 336.852 95.9277 336.852 96.732 336.802C107.138 336.45 116.739 333.836 123.525 331.473C124.179 331.222 124.531 330.518 124.279 329.864C123.978 329.311 123.274 328.96 122.62 329.161Z" fill="#E6EBFF"/>
<path d="M84.4157 272.506C79.1375 277.985 75.8198 283.414 74.6133 288.793C74.3117 290.1 74.1609 291.457 74.1609 292.815C74.1609 297.339 75.8198 301.763 78.8862 304.728C80.6958 306.488 83.0082 307.644 85.5719 308.398C88.1356 309.152 91.0512 309.504 94.0673 309.504C101.96 309.504 110.958 307.242 118.548 304.075C120.107 303.421 121.765 303.12 123.324 303.12C125.737 303.12 128.099 303.824 130.16 305.131C132.171 306.438 133.83 308.348 134.835 310.71C135.489 312.269 135.79 313.928 135.79 315.486C135.79 317.899 135.087 320.312 133.78 322.322C132.473 324.333 130.562 325.992 128.2 326.997C126.692 327.651 124.782 328.355 122.57 329.159C121.916 329.41 121.564 330.114 121.816 330.768C122.067 331.421 122.771 331.773 123.424 331.522C125.686 330.717 127.647 329.963 129.155 329.31C132.02 328.103 134.333 326.143 135.891 323.73C137.449 321.317 138.354 318.452 138.354 315.536C138.354 313.626 138.002 311.665 137.198 309.755C135.992 306.89 134.031 304.578 131.618 303.019C129.205 301.461 126.34 300.556 123.424 300.556C121.514 300.556 119.554 300.908 117.643 301.712C110.304 304.779 101.557 306.94 94.1176 306.94C91.2523 306.94 88.6383 306.639 86.3259 305.935C84.0136 305.281 82.1034 304.226 80.6456 302.818C78.1321 300.405 76.6743 296.685 76.6743 292.764C76.6743 291.608 76.7749 290.452 77.0765 289.296C78.1321 284.52 81.1483 279.443 86.2254 274.215C86.7281 273.713 86.6778 272.908 86.1751 272.456C85.6725 272.003 84.9184 272.054 84.4157 272.506Z" fill="#E6EBFF"/>
<path d="M124.077 188.256C123.725 188.005 123.323 187.804 122.971 187.653C120.86 186.647 118.949 185.29 117.24 183.682C114.475 181.068 110.756 179.459 106.684 179.459C102.914 179.459 99.6461 181.118 96.7808 183.078C94.2674 184.787 92.2064 186.346 89.5421 187.351C88.9389 187.603 88.3357 187.904 87.7325 188.256C84.1634 190.568 83.0575 195.193 85.1688 198.863C86.9282 201.929 90.2962 203.236 93.4631 202.583C96.1274 207.107 101.054 210.123 106.684 210.123C112.264 210.123 117.14 207.157 119.854 202.733C122.619 202.784 125.333 201.426 126.842 198.762C128.852 195.093 127.646 190.518 124.077 188.256Z" fill="white"/>
<path d="M124.078 188.257L124.631 187.352C124.228 187.101 123.826 186.849 123.374 186.648C121.363 185.693 119.553 184.386 117.895 182.878C114.979 180.113 110.957 178.404 106.584 178.404C104.523 178.404 102.663 178.857 100.904 179.56C99.1443 180.264 97.586 181.219 96.0779 182.225C94.8212 183.079 93.665 183.884 92.5591 184.587C91.4029 185.291 90.297 185.894 89.0906 186.397C88.3868 186.648 87.7333 187 87.0798 187.402C84.4156 189.112 82.9578 191.977 82.9578 194.943C82.9578 196.451 83.3599 198.009 84.1642 199.417C85.0188 200.874 86.1247 201.98 87.482 202.734C88.7889 203.488 90.297 203.84 91.8051 203.84C92.4083 203.84 93.0115 203.79 93.6147 203.639L93.4137 202.634L92.5088 203.187C95.3741 208.013 100.652 211.23 106.634 211.23C112.566 211.23 117.794 208.063 120.659 203.338L119.755 202.785L119.704 203.84C119.805 203.84 119.855 203.84 119.956 203.84C121.464 203.84 122.972 203.438 124.329 202.684C125.686 201.93 126.842 200.774 127.647 199.316C128.401 197.909 128.803 196.401 128.803 194.943C128.803 191.977 127.295 189.061 124.631 187.352L124.078 188.257L123.525 189.162C125.586 190.519 126.742 192.731 126.742 194.993C126.742 196.149 126.44 197.255 125.837 198.361C125.184 199.517 124.329 200.372 123.324 200.925C122.318 201.478 121.162 201.779 120.006 201.779C119.956 201.779 119.905 201.779 119.855 201.779H119.252L118.95 202.282C116.437 206.404 111.913 209.169 106.685 209.169C101.457 209.169 96.832 206.354 94.3688 202.131L93.9666 201.478L93.2126 201.628C92.7602 201.729 92.3078 201.779 91.8553 201.779C90.6992 201.779 89.5932 201.478 88.5879 200.925C87.5825 200.372 86.7279 199.517 86.0744 198.411C85.4209 197.305 85.1696 196.149 85.1696 194.993C85.1696 192.731 86.2755 190.569 88.3365 189.212C88.8392 188.86 89.3922 188.609 89.9451 188.408C91.3527 187.855 92.6094 187.201 93.8158 186.447C95.0223 185.693 96.1785 184.839 97.3849 184.034C98.7924 183.079 100.25 182.225 101.809 181.571C103.367 180.968 104.975 180.566 106.735 180.566C110.555 180.566 114.024 182.074 116.588 184.487C118.347 186.146 120.358 187.603 122.62 188.659C122.972 188.81 123.273 189.011 123.625 189.212L124.078 188.257Z" fill="#F05A22"/>
<path d="M118.699 200.472C118.649 200.522 118.548 200.522 118.498 200.572C115.984 201.578 113.119 201.075 111.058 199.316C109.902 198.31 108.344 197.707 106.685 197.707C104.925 197.707 103.367 198.361 102.161 199.466C100.15 201.276 97.2342 201.729 94.7208 200.673L94.6202 200.623C92.3581 199.668 90.0458 201.93 90.9506 204.242C93.3635 210.526 99.4963 214.999 106.634 214.999C113.873 214.999 120.006 210.425 122.369 204.041C123.223 201.729 120.911 199.567 118.699 200.472Z" fill="#F05A22"/>
<path d="M113.471 239.883H105.83C103.618 239.883 101.809 238.073 101.809 235.861C101.809 233.65 103.618 231.84 105.83 231.84H113.471C115.683 231.84 117.492 233.65 117.492 235.861C117.492 238.073 115.733 239.883 113.471 239.883Z" fill="#F05A22"/>
<path d="M105.427 237.068C107.79 237.571 109.399 270.296 101.356 293.872L110.253 284.069L121.162 289.247C122.117 281.405 114.677 232.041 109.851 236.063L105.427 237.068Z" fill="#F05A22"/>
<path d="M334.855 406.775C351.192 415.22 382.007 411.148 377.885 386.868C375.773 374.703 361.196 368.47 349.986 369.073C342.546 369.475 335.357 372.642 329.928 377.719C324.097 383.199 321.986 391.594 315.602 396.57C314.848 397.173 315.149 398.43 316.104 398.581C322.79 399.687 328.822 402.753 334.452 406.523" fill="#1D50CD"/>
<path d="M308.865 337.405C306.2 329.663 301.375 322.676 293.734 317.247C280.161 307.595 249.749 303.272 243.063 323.631C236.93 342.381 257.842 351.329 270.912 358.166C281.167 363.545 294.236 369.878 300.068 380.535L303.285 386.417C303.787 387.372 305.245 387.221 305.547 386.166L307.859 378.474C311.881 365.002 313.288 350.173 308.865 337.405Z" fill="#1D50CD"/>
<path d="M271.265 386.768C268.399 387.371 265.836 388.879 263.523 390.789C258.044 395.314 254.073 401.899 252.665 408.886C251.71 413.662 251.911 418.638 253.57 423.213C255.883 429.848 262.317 436.484 269.807 432.714C275.89 429.647 276.644 422.258 276.04 416.225C275.487 410.746 275.286 405.066 276.995 399.787C277.699 397.576 278.755 395.464 280.363 393.755C281.268 392.8 282.927 391.393 284.586 390.739C285.038 390.538 285.038 389.985 284.636 389.734C281.419 388.075 277.9 386.667 274.281 386.567C273.175 386.466 272.17 386.567 271.265 386.768Z" fill="#1D50CD"/>
<path d="M279.158 391.14C279.208 391.14 279.258 391.14 279.308 391.14C282.727 391.14 285.542 391.995 287.955 393.503C289.764 394.609 291.323 396.117 292.68 397.876C294.691 400.49 296.249 403.758 297.405 407.277C298.511 410.796 299.215 414.515 299.617 418.135C299.667 418.788 300.22 419.241 300.874 419.14C301.527 419.09 301.98 418.537 301.879 417.883C301.175 411.248 299.416 404.11 295.897 398.48C294.138 395.665 291.926 393.252 289.161 391.543C286.396 389.833 283.129 388.828 279.308 388.828C279.258 388.828 279.208 388.828 279.158 388.828C278.504 388.828 278.001 389.331 278.001 389.984C278.001 390.638 278.504 391.14 279.158 391.14Z" fill="#1D50CD"/>
<path d="M321.986 392.197C321.081 392.348 320.277 392.75 319.523 393.253C318.366 394.007 317.311 394.962 316.356 395.967C315.401 396.973 314.596 397.978 313.943 398.732C311.63 401.497 309.72 404.614 308.212 407.881C306.654 411.199 305.347 414.667 304.241 418.186C304.04 418.789 304.392 419.443 304.995 419.644C305.598 419.845 306.252 419.493 306.453 418.89C307.508 415.421 308.765 412.104 310.273 408.886C311.731 405.77 313.541 402.854 315.702 400.24C316.557 399.185 317.713 397.827 318.919 396.671C319.523 396.118 320.176 395.565 320.779 395.213C321.383 394.811 321.986 394.56 322.438 394.459C323.041 394.359 323.444 393.756 323.343 393.102C323.242 392.499 322.639 392.046 321.986 392.197Z" fill="#1D50CD"/>
<path d="M301.929 378.122C302.934 384.204 303.336 390.337 303.336 396.47C303.336 403.558 302.783 410.646 302.029 417.784C301.979 418.437 302.432 418.99 303.035 419.041C303.688 419.091 304.241 418.638 304.291 418.035C305.096 410.897 305.598 403.709 305.598 396.52C305.598 390.287 305.196 384.003 304.191 377.77C304.09 377.167 303.487 376.714 302.884 376.815C302.231 376.915 301.828 377.468 301.929 378.122Z" fill="#1D50CD"/>
<path d="M330.532 424.167H329.375C329.375 425.424 328.873 426.53 328.018 427.334C327.164 428.138 326.007 428.641 324.7 428.641H324.198C323.645 428.641 323.192 428.993 323.092 429.546L315.602 461.014H289.361L281.871 429.546C281.771 429.043 281.268 428.641 280.765 428.641H280.313C279.006 428.641 277.85 428.138 276.995 427.334C276.141 426.53 275.638 425.374 275.638 424.167C275.638 422.91 276.141 421.805 276.995 421C277.85 420.196 279.006 419.693 280.313 419.693H324.7C326.007 419.693 327.164 420.196 328.018 421C328.873 421.805 329.375 422.961 329.375 424.167H330.532H331.688C331.688 422.307 330.883 420.548 329.627 419.341C328.37 418.135 326.611 417.381 324.7 417.381H280.313C278.403 417.381 276.643 418.135 275.387 419.341C274.13 420.548 273.326 422.257 273.326 424.167C273.326 426.027 274.13 427.787 275.387 428.993C276.643 430.199 278.403 430.953 280.313 430.953H280.765V429.797L279.66 430.049L287.351 462.422C287.451 462.924 287.954 463.327 288.457 463.327H316.507C317.06 463.327 317.512 462.975 317.612 462.422L325.304 430.049L324.198 429.797V430.953H324.7C326.611 430.953 328.37 430.199 329.627 428.993C330.883 427.787 331.688 426.077 331.688 424.167H330.532Z" fill="#090928"/>
<path d="M201.391 95.0077C201.089 61.3277 228.184 33.7804 261.914 33.4788L334.955 32.8755C368.635 32.5739 396.182 59.6688 396.484 93.3991C396.785 127.079 369.69 154.626 335.96 154.928L262.92 155.481L224.816 183.33C221.75 185.592 217.376 183.833 216.672 180.113L202.698 107.022C201.893 103.151 201.441 99.1298 201.391 95.0077Z" fill="#8E99FF"/>
<path d="M246.683 68.8674C233.362 80.3789 224.967 97.42 224.967 116.371C224.967 116.572 224.967 116.723 224.967 116.924C225.017 121.147 225.47 125.319 226.274 129.29L227.983 128.939V127.179C227.43 127.179 226.978 127.43 226.626 127.833C226.274 128.235 226.173 128.788 226.274 129.29L240.55 202.381V202.431C240.952 204.191 241.958 205.598 243.265 206.604C244.572 207.559 246.13 208.112 247.739 208.112C249.347 208.112 251.006 207.559 252.414 206.403L251.308 205.045L252.363 206.453L288.858 179.157L365.569 178.504C381.655 178.353 396.182 171.768 406.638 161.161C417.144 150.604 423.579 136.026 423.579 119.991C423.579 119.84 423.579 119.639 423.579 119.488L423.528 110.993C423.378 94.9066 416.792 80.3789 406.186 69.923C395.629 59.4168 381.051 52.9824 365.016 52.9824C364.865 52.9824 364.664 52.9824 364.513 52.9824L352.197 53.083C351.242 53.083 350.438 53.8873 350.438 54.8424C350.438 55.7975 351.242 56.6018 352.197 56.6018L364.513 56.5012C364.664 56.5012 364.814 56.5012 364.965 56.5012C380.046 56.5012 393.719 62.5837 403.672 72.4364C413.625 82.2891 419.809 95.9119 419.959 111.043L420.01 119.538C420.01 119.689 420.01 119.84 420.01 119.991C420.01 135.071 413.927 148.744 404.074 158.698C394.222 168.651 380.599 174.834 365.468 174.985L288.205 175.638C287.853 175.638 287.451 175.739 287.149 175.99L250.202 203.638L250.151 203.688C249.397 204.291 248.593 204.593 247.739 204.593C246.884 204.593 246.08 204.291 245.376 203.789C244.722 203.286 244.22 202.582 243.968 201.627L242.259 202.029L243.968 201.677L229.692 128.587L227.983 128.939V130.698C228.536 130.698 229.039 130.447 229.34 130.044C229.692 129.642 229.793 129.089 229.692 128.587C228.888 124.816 228.486 120.896 228.435 116.874C228.435 116.723 228.435 116.522 228.435 116.371C228.435 98.4757 236.378 82.4399 248.945 71.5316C249.699 70.8781 249.749 69.7722 249.146 69.0684C248.543 68.3144 247.437 68.2139 246.683 68.8674Z" fill="#2E1F88"/>
<path d="M286.647 41.9237C282.073 35.2379 290.669 29.1554 296.751 28.3008C303.688 27.2955 311.279 31.7191 312.485 38.9075C313.641 46.0457 307.458 50.972 302.532 54.9433C299.566 57.3059 296.5 59.7188 294.791 63.1873C292.83 67.1083 293.182 71.2806 295.394 75.0005C298.008 79.4744 304.945 75.4026 302.331 70.9287C300.471 67.8121 302.532 65.4494 304.945 63.3382C307.458 61.1263 310.123 59.2161 312.586 56.954C317.763 52.1282 321.383 45.5933 320.528 38.3546C318.518 21.8664 298.209 15.231 285.39 24.4301C278.453 29.4067 274.532 38.254 279.76 45.9452C282.626 50.218 289.613 46.1965 286.647 41.9237Z" fill="#F7BA1D"/>
<path d="M303.436 91.9921C306.296 91.9921 308.614 89.674 308.614 86.8144C308.614 83.9548 306.296 81.6367 303.436 81.6367C300.576 81.6367 298.258 83.9548 298.258 86.8144C298.258 89.674 300.576 91.9921 303.436 91.9921Z" fill="#F7BA1D"/>
<path d="M352.197 55.0443H350.437C350.437 69.2704 344.657 82.1392 335.357 91.4389C326.007 100.739 313.188 106.52 298.962 106.52C284.736 106.52 271.867 100.739 262.568 91.4389C253.268 82.0889 247.487 69.2704 247.487 55.0443C247.487 40.8182 253.268 27.9494 262.568 18.6497C271.918 9.34999 284.736 3.56909 298.962 3.56909C313.188 3.56909 326.057 9.34999 335.357 18.6497C344.657 27.9997 350.437 40.8182 350.437 55.0443H352.197H353.956C353.956 39.8631 347.773 26.0895 337.82 16.1363C327.867 6.18306 314.093 0 298.912 0C283.731 0 269.957 6.18306 260.004 16.1363C250.051 26.0895 243.868 39.8631 243.868 55.0443C243.868 70.2255 250.051 83.9991 260.004 93.9523C269.957 103.906 283.731 110.089 298.912 110.089C314.093 110.089 327.867 103.906 337.82 93.9523C347.773 83.9991 353.956 70.2255 353.956 55.0443H352.197Z" fill="#2E1F88"/>
</svg>
