<svg xmlns="http://www.w3.org/2000/svg" width="36" height="36" viewBox="0 0 36 36" fill="none">
  <circle cx="18" cy="18" r="18" fill="#FF0000"/>
  <path fill-rule="evenodd" clip-rule="evenodd" d="M28.1702 11.1407C28.5294 11.4998 28.7883 11.9469 28.9209 12.4372C29.685 15.5125 29.5084 20.3696 28.9358 23.5636C28.8031 24.0539 28.5443 24.5009 28.1851 24.8601C27.8259 25.2193 27.3789 25.4781 26.8885 25.6108C25.0935 26.1004 17.8687 26.1004 17.8687 26.1004C17.8687 26.1004 10.644 26.1004 8.84897 25.6108C8.35863 25.4781 7.91161 25.2193 7.55242 24.8601C7.19323 24.5009 6.9344 24.0539 6.80172 23.5636C6.03325 20.5016 6.24391 15.6416 6.78688 12.452C6.91956 11.9617 7.17839 11.5147 7.53758 11.1555C7.89677 10.7963 8.3438 10.5375 8.83413 10.4048C10.6292 9.91522 17.8539 9.90039 17.8539 9.90039C17.8539 9.90039 25.0786 9.90039 26.8737 10.3899C27.364 10.5226 27.8111 10.7815 28.1702 11.1407ZM21.5479 18.0004L15.5545 21.4718V14.529L21.5479 18.0004Z" fill="white"/>
</svg>
