<svg width="28" height="28" viewBox="0 0 28 28" fill="none" xmlns="http://www.w3.org/2000/svg">
<g id="fa: triangle-exclamation">
<path id="Vector" d="M13.5844 4.61016C13.6719 4.4625 13.8305 4.375 14 4.375C14.1695 4.375 14.3281 4.4625 14.4156 4.61016L25.2602 22.4219C25.3367 22.5477 25.375 22.6898 25.375 22.832C25.375 23.2695 25.0195 23.625 24.582 23.625H3.41797C2.98047 23.625 2.625 23.2695 2.625 22.832C2.625 22.6844 2.66328 22.5422 2.73984 22.4219L13.5844 4.61016ZM11.3422 3.24297L0.497656 21.0547C0.169531 21.5906 0 22.2031 0 22.832C0 24.7188 1.53125 26.25 3.41797 26.25H24.582C26.4688 26.25 28 24.7188 28 22.832C28 22.2031 27.825 21.5906 27.5023 21.0547L16.6578 3.24297C16.0945 2.31875 15.0883 1.75 14 1.75C12.9117 1.75 11.9055 2.31875 11.3422 3.24297ZM15.75 20.125C15.75 19.6609 15.5656 19.2158 15.2374 18.8876C14.9092 18.5594 14.4641 18.375 14 18.375C13.5359 18.375 13.0908 18.5594 12.7626 18.8876C12.4344 19.2158 12.25 19.6609 12.25 20.125C12.25 20.5891 12.4344 21.0342 12.7626 21.3624C13.0908 21.6906 13.5359 21.875 14 21.875C14.4641 21.875 14.9092 21.6906 15.2374 21.3624C15.5656 21.0342 15.75 20.5891 15.75 20.125ZM15.3125 10.0625C15.3125 9.33516 14.7273 8.75 14 8.75C13.2727 8.75 12.6875 9.33516 12.6875 10.0625V15.3125C12.6875 16.0398 13.2727 16.625 14 16.625C14.7273 16.625 15.3125 16.0398 15.3125 15.3125V10.0625Z" fill="#F05A22"/>
</g>
</svg>
