<svg xmlns="http://www.w3.org/2000/svg" width="62" height="47" viewBox="0 0 62 47" fill="none">
  <path fill-rule="evenodd" clip-rule="evenodd" d="M60.8804 14.2725L49.0678 1.31733C48.945 1.1357 48.7861 1.05444 48.7528 1.03741L48.75 1.03597C48.6258 0.971837 48.5036 0.948625 48.4692 0.942086L48.4661 0.941494C48.3619 0.921539 48.2337 0.908741 48.1103 0.898996C47.8492 0.878379 47.4682 0.861307 46.9952 0.846841C46.0437 0.817747 44.6685 0.797774 43.0155 0.785732C39.7072 0.761629 35.2642 0.769152 30.8232 0.800418C26.3823 0.831683 21.9392 0.886721 18.6308 0.957777C16.9778 0.99328 15.6025 1.0329 14.6509 1.07581C14.1778 1.09715 13.7966 1.11985 13.5353 1.14447C13.4118 1.15611 13.2832 1.17094 13.1787 1.19273L13.1757 1.19336C13.141 1.20055 13.0189 1.22583 12.8954 1.29232L12.8928 1.29371C12.8596 1.31148 12.7086 1.39217 12.5903 1.5673L0.21803 15.1222C-0.0836031 15.4526 -0.0707491 15.9622 0.24716 16.2771L30.2472 45.9871C30.4058 46.1441 30.6207 46.2311 30.8439 46.2284C31.0671 46.2258 31.28 46.1338 31.4348 45.973L60.8648 15.413C61.1698 15.0963 61.1766 14.5974 60.8804 14.2725ZM3.2539 14.2705L13.7214 2.80249C13.762 2.79884 13.8067 2.79517 13.8553 2.79148L22.9483 14.1935L3.2539 14.2705ZM48.387 3.04654L58.4246 14.0549L41.143 14.1225L48.387 3.04654ZM47.0947 2.51897L40.3789 12.7872L32.3056 2.67437L46.9704 2.51497L47.0947 2.51897ZM39.696 14.1281L24.2998 14.1883L31.2547 3.55444L39.696 14.1281ZM30.2981 2.51359L17.4747 2.65305C16.7487 2.67118 16.0996 2.69014 15.5429 2.70982L23.5791 12.7867L30.2981 2.51359ZM29.0581 41.3038L12.9599 15.8462L22.4012 15.8093L29.0581 41.3038ZM26.6796 40.1063L11.7652 16.5208C11.6329 16.3115 11.628 16.0579 11.73 15.851L2.225 15.8881L26.6796 40.1063ZM35.5802 39.2637L50.651 15.7645C50.6648 15.743 50.6772 15.7211 50.6883 15.6988L58.3024 15.669L35.5802 39.2637ZM49.0612 15.7051L33.1109 40.5756L41.1345 15.7361L49.0612 15.7051ZM23.816 15.8038L39.6927 15.7417L30.9041 42.9496L23.816 15.8038Z" fill="#FFFAF5"/>
</svg>
