<svg xmlns="http://www.w3.org/2000/svg" width="58" height="61" viewBox="0 0 58 61" fill="none">
  <path fill-rule="evenodd" clip-rule="evenodd" d="M21.2574 2.18299C10.5638 2.18299 1.8949 10.8519 1.8949 21.5455C1.8949 32.2392 10.5638 40.9081 21.2574 40.9081C31.9511 40.9081 40.62 32.2392 40.62 21.5455C40.62 10.8519 31.9511 2.18299 21.2574 2.18299ZM0 21.5455C0 9.80537 9.51728 0.288086 21.2574 0.288086C32.9976 0.288086 42.5149 9.80537 42.5149 21.5455C42.5149 26.9636 40.4879 31.9083 37.1508 35.6625L41.5574 40.8448C42.4428 40.6578 43.401 40.949 44.0274 41.6855L56.6674 56.5155C57.5674 57.5855 57.4374 59.1955 56.3774 60.1055C55.3074 61.0155 53.6974 60.8856 52.7874 59.8156L40.1474 44.9855C39.3911 44.0962 39.3532 42.8339 39.9763 41.9105L35.8242 37.0275C32.0195 40.6086 26.8947 42.803 21.2574 42.803C9.51728 42.803 0 33.2857 0 21.5455ZM21.0374 19.2033C19.6313 19.2033 18.4945 20.3402 18.4945 21.7462C18.4945 23.1523 19.6313 24.2891 21.0374 24.2891C22.4434 24.2891 23.5803 23.1523 23.5803 21.7462C23.5803 20.3402 22.4434 19.2033 21.0374 19.2033ZM17.1403 21.7462C17.1403 19.5923 18.8834 17.8491 21.0374 17.8491C23.1913 17.8491 24.9345 19.5923 24.9345 21.7462C24.9345 23.9002 23.1913 25.6433 21.0374 25.6433C18.8834 25.6433 17.1403 23.9002 17.1403 21.7462ZM21.0384 15.8779C24.3726 15.8731 27.3549 16.5755 29.4776 17.6801C31.6348 18.8025 32.7257 20.2306 32.7257 21.6162C32.7257 22.9962 31.6358 24.4219 29.4776 25.5449C27.3545 26.6496 24.3718 27.3545 21.0374 27.3545C17.703 27.3545 14.7203 26.6496 12.5971 25.5449C10.439 24.4219 9.34909 22.9962 9.34909 21.6162C9.34909 20.2363 10.439 18.8105 12.5971 17.6876C14.7203 16.5828 17.703 15.8779 21.0374 15.8779L21.0384 15.8779ZM34.1491 21.6162C34.1491 19.4319 32.4649 17.6299 30.1346 16.4174C27.77 15.187 24.5525 14.4495 21.0369 14.4545H21.0374V15.1662L21.0363 14.4545C17.5212 14.4547 14.3043 15.1947 11.9401 16.4249C9.61078 17.6369 7.92569 19.4362 7.92569 21.6162C7.92569 23.7963 9.61078 25.5955 11.9401 26.8076C14.3045 28.0379 17.5218 28.778 21.0374 28.778C24.553 28.778 27.7703 28.0379 30.1346 26.8076C32.464 25.5955 34.1491 23.7963 34.1491 21.6162Z" fill="#FFFAF5"/>
</svg>
