<svg xmlns="http://www.w3.org/2000/svg" width="51" height="73" viewBox="0 0 51 73" fill="none">
  <path fill-rule="evenodd" clip-rule="evenodd" d="M25.4109 0C23.3551 0 21.5859 1.58894 20.1165 3.97898C18.6227 6.40894 17.3031 9.87798 16.205 14.102C14.4326 20.9194 13.2106 29.8082 12.8031 39.7229C12.56 39.5897 12.2505 39.6066 12.02 39.79C2.54816 47.3286 -2.00132 60.5401 0.835478 72.3148C0.913878 72.6402 1.20906 72.8665 1.54367 72.8578C1.87828 72.8491 2.16128 72.6077 2.22263 72.2786C3.41684 65.8733 7.18564 62.0628 13.0543 58.9347C13.2595 61.9274 13.5394 64.8027 13.8844 67.5288C13.9292 67.8834 14.2308 68.1492 14.5882 68.1492H36.2336C36.5905 68.1492 36.8919 67.884 36.9373 67.5299C37.2711 64.924 37.542 62.1819 37.7438 59.3315C43.1974 62.3865 46.705 66.1416 47.8492 72.2786C47.9106 72.6077 48.1936 72.8491 48.5282 72.8578C48.8628 72.8665 49.158 72.6402 49.2364 72.3148C52.0732 60.5401 47.5237 47.3286 38.0519 39.79L38.0355 39.7774L38.0205 39.7664C37.6148 29.8341 36.3918 20.9294 34.6168 14.102C33.5187 9.87798 32.1991 6.40894 30.7052 3.97898C29.2359 1.58894 27.4666 0 25.4109 0ZM48.4178 68.9211C46.6021 63.8254 42.9032 60.4928 37.8468 57.7693C37.9867 55.4798 38.0824 53.1254 38.1309 50.7199C38.151 50.6544 38.1619 50.5848 38.1619 50.5127C38.1619 50.45 38.1537 50.3892 38.1383 50.3313C38.1578 49.2465 38.1677 48.1515 38.1677 47.0476C38.1677 45.2274 38.1405 43.4311 38.0876 41.6645C45.7174 48.2869 49.6928 58.9083 48.4178 68.9211ZM36.7279 49.809C36.7417 48.8955 36.7488 47.9748 36.7488 47.0476C36.7488 34.2925 35.4044 22.7708 33.2436 14.459C32.1617 10.2979 30.8854 6.98136 29.4965 4.72208C28.083 2.4229 26.6826 1.4189 25.4109 1.4189C24.1391 1.4189 22.7388 2.4229 21.3253 4.72208C19.9364 6.98136 18.66 10.2979 17.5782 14.459C15.4174 22.7708 14.073 34.2925 14.073 47.0476C14.073 47.9748 14.0802 48.8955 14.0943 49.809H36.7279ZM14.1217 51.2164C14.251 56.7272 14.6331 61.9556 15.215 66.7303H35.6077C36.1959 61.9562 36.5736 56.7279 36.7009 51.2164H14.1217ZM12.9662 57.5668C12.7626 54.1861 12.6541 50.6649 12.6541 47.0476C12.6541 45.0054 12.6883 42.9934 12.7547 41.0196C4.62365 47.5824 0.336833 58.5765 1.65406 68.9211C3.50025 63.7399 7.29335 60.3814 12.4809 57.6326C12.6358 57.5505 12.8075 57.5316 12.9662 57.5668ZM25.4109 13.8746C24.2537 13.8746 23.3102 14.8117 23.3102 15.9752C23.3102 17.1324 24.2473 18.0759 25.4109 18.0759C26.5681 18.0759 27.5115 17.1388 27.5115 15.9752C27.5115 14.8101 26.576 13.8746 25.4109 13.8746ZM21.8913 15.9752C21.8913 14.0249 23.4731 12.4557 25.4109 12.4557C27.3596 12.4557 28.9304 14.0265 28.9304 15.9752C28.9304 17.9255 27.3486 19.4948 25.4109 19.4948C23.4605 19.4948 21.8913 17.9129 21.8913 15.9752ZM23.3102 28.8296C23.3102 27.666 24.2537 26.7289 25.4109 26.7289C26.576 26.7289 27.5115 27.6644 27.5115 28.8296C27.5115 29.9931 26.5681 30.9302 25.4109 30.9302C24.2473 30.9302 23.3102 29.9868 23.3102 28.8296ZM25.4109 25.31C23.4731 25.31 21.8913 26.8793 21.8913 28.8296C21.8913 30.7673 23.4605 32.3491 25.4109 32.3491C27.3486 32.3491 28.9304 30.7799 28.9304 28.8296C28.9304 26.8808 27.3596 25.31 25.4109 25.31Z" fill="#FFFAF5"/>
</svg>
